<svg xmlns="http://www.w3.org/2000/svg" viewBox="0 0 1200 750" width="1200" height="750"><rect width="1200" height="750" fill="#020617"/><g stroke="#1E293B" stroke-width="1"><line x1="0" y1="0" x2="0" y2="750"/><line x1="50" y1="0" x2="50" y2="750"/><line x1="100" y1="0" x2="100" y2="750"/><line x1="150" y1="0" x2="150" y2="750"/><line x1="200" y1="0" x2="200" y2="750"/><line x1="250" y1="0" x2="250" y2="750"/><line x1="300" y1="0" x2="300" y2="750"/><line x1="350" y1="0" x2="350" y2="750"/><line x1="400" y1="0" x2="400" y2="750"/><line x1="450" y1="0" x2="450" y2="750"/><line x1="500" y1="0" x2="500" y2="750"/><line x1="550" y1="0" x2="550" y2="750"/><line x1="600" y1="0" x2="600" y2="750"/><line x1="650" y1="0" x2="650" y2="750"/><line x1="700" y1="0" x2="700" y2="750"/><line x1="750" y1="0" x2="750" y2="750"/><line x1="800" y1="0" x2="800" y2="750"/><line x1="850" y1="0" x2="850" y2="750"/><line x1="900" y1="0" x2="900" y2="750"/><line x1="950" y1="0" x2="950" y2="750"/><line x1="1000" y1="0" x2="1000" y2="750"/><line x1="1050" y1="0" x2="1050" y2="750"/><line x1="1100" y1="0" x2="1100" y2="750"/><line x1="1150" y1="0" x2="1150" y2="750"/><line x1="1200" y1="0" x2="1200" y2="750"/><line x1="0" y1="0" x2="1200" y2="0"/><line x1="0" y1="50" x2="1200" y2="50"/><line x1="0" y1="100" x2="1200" y2="100"/><line x1="0" y1="150" x2="1200" y2="150"/><line x1="0" y1="200" x2="1200" y2="200"/><line x1="0" y1="250" x2="1200" y2="250"/><line x1="0" y1="300" x2="1200" y2="300"/><line x1="0" y1="350" x2="1200" y2="350"/><line x1="0" y1="400" x2="1200" y2="400"/><line x1="0" y1="450" x2="1200" y2="450"/><line x1="0" y1="500" x2="1200" y2="500"/><line x1="0" y1="550" x2="1200" y2="550"/><line x1="0" y1="600" x2="1200" y2="600"/><line x1="0" y1="650" x2="1200" y2="650"/><line x1="0" y1="700" x2="1200" y2="700"/><line x1="0" y1="750" x2="1200" y2="750"/></g><line x1="301.43462404742337" y1="540.0587112550239" x2="286.7588499996428" y2="304.8406168537593" stroke="#334155" stroke-width="2"/><line x1="301.43462404742337" y1="540.0587112550239" x2="936.8664998718225" y2="213.89918906046003" stroke="#334155" stroke-width="2"/><line x1="974.2742908692679" y1="322.9511503716476" x2="286.7588499996428" y2="304.8406168537593" stroke="#334155" stroke-width="2"/><line x1="308.3480312939249" y1="491.19460764452316" x2="286.7588499996428" y2="304.8406168537593" stroke="#334155" stroke-width="2"/><line x1="308.3480312939249" y1="491.19460764452316" x2="620.4766142186492" y2="301.70649228310816" stroke="#334155" stroke-width="2"/><line x1="286.7588499996428" y1="304.8406168537593" x2="407.79015461708434" y2="538.5884801005838" stroke="#334155" stroke-width="2"/><line x1="286.7588499996428" y1="304.8406168537593" x2="936.8664998718225" y2="213.89918906046003" stroke="#334155" stroke-width="2"/><line x1="407.79015461708434" y1="538.5884801005838" x2="620.4766142186492" y2="301.70649228310816" stroke="#334155" stroke-width="2"/><line x1="620.4766142186492" y1="301.70649228310816" x2="936.8664998718225" y2="213.89918906046003" stroke="#334155" stroke-width="2"/><line x1="936.8664998718225" y1="213.89918906046003" x2="756.725225054403" y2="330.22298911141513" stroke="#334155" stroke-width="2"/><circle cx="301.43462404742337" cy="540.0587112550239" r="26" fill="#0F172A" stroke="#F59E08" stroke-width="3"/><circle cx="974.2742908692679" cy="322.9511503716476" r="14" fill="#0F172A" stroke="#06B6D4" stroke-width="3"/><circle cx="308.3480312939249" cy="491.19460764452316" r="14" fill="#0F172A" stroke="#06B6D4" stroke-width="3"/><circle cx="286.7588499996428" cy="304.8406168537593" r="14" fill="#0F172A" stroke="#06B6D4" stroke-width="3"/><circle cx="407.79015461708434" cy="538.5884801005838" r="14" fill="#0F172A" stroke="#06B6D4" stroke-width="3"/><circle cx="620.4766142186492" cy="301.70649228310816" r="14" fill="#0F172A" stroke="#06B6D4" stroke-width="3"/><circle cx="787.380754451622" cy="300.50904939929865" r="14" fill="#0F172A" stroke="#06B6D4" stroke-width="3"/><circle cx="936.8664998718225" cy="213.89918906046003" r="14" fill="#0F172A" stroke="#06B6D4" stroke-width="3"/><circle cx="756.725225054403" cy="330.22298911141513" r="14" fill="#0F172A" stroke="#06B6D4" stroke-width="3"/></svg>